# xmcd
#
# Track frame offsets: 
#        150
#        17732
#        36202
#        71635
#        118720
#
# Disc length: 2055 seconds
#
# Revision: 2
# Processed by: cddbd v1.5.2PL0 Copyright (c) Steve Scherf et al.
# Submitted via: ExactAudioCopy v0.99pb3
#
DISCID=3e080505
DTITLE=Rickie Lee Jones - firewalker
DYEAR=1900
DGENRE=Blues
TTITLE0=DAVE KAHNE  (RADIO EDIT)
TTITLE1=MID ATLANTIC (RADIO EDIT)
TTITLE2=MID ATLANTIC ( MIX )
TTITLE3=CLOSE YOUR EYES   ( MIX )
TTITLE4=MID ATLANTIC   ( INSTRUMENTAL)
EXTD=
EXTT0=
EXTT1=
EXTT2=
EXTT3=
EXTT4=
PLAYORDER=
